<svg id="visual" viewBox="0 0 960 300" width="960" height="300" xmlns="http://www.w3.org/2000/svg" xmlns:xlink="http://www.w3.org/1999/xlink" version="1.1"><path d="M0 146L16 145.7C32 145.3 64 144.7 96 146.8C128 149 160 154 192 147.3C224 140.7 256 122.3 288 113.3C320 104.3 352 104.7 384 112C416 119.3 448 133.7 480 136C512 138.3 544 128.7 576 122.5C608 116.3 640 113.7 672 112C704 110.3 736 109.7 768 117.5C800 125.3 832 141.7 864 148.7C896 155.7 928 153.3 944 152.2L960 151L960 301L944 301C928 301 896 301 864 301C832 301 800 301 768 301C736 301 704 301 672 301C640 301 608 301 576 301C544 301 512 301 480 301C448 301 416 301 384 301C352 301 320 301 288 301C256 301 224 301 192 301C160 301 128 301 96 301C64 301 32 301 16 301L0 301Z" fill="#fcca46"></path><path d="M0 132L16 130.5C32 129 64 126 96 129.2C128 132.3 160 141.7 192 151C224 160.3 256 169.7 288 165C320 160.3 352 141.7 384 141.2C416 140.7 448 158.3 480 164.3C512 170.3 544 164.7 576 161.7C608 158.7 640 158.3 672 159.3C704 160.3 736 162.7 768 156.8C800 151 832 137 864 129.8C896 122.7 928 122.3 944 122.2L960 122L960 301L944 301C928 301 896 301 864 301C832 301 800 301 768 301C736 301 704 301 672 301C640 301 608 301 576 301C544 301 512 301 480 301C448 301 416 301 384 301C352 301 320 301 288 301C256 301 224 301 192 301C160 301 128 301 96 301C64 301 32 301 16 301L0 301Z" fill="#febc3c"></path><path d="M0 182L16 182C32 182 64 182 96 181.5C128 181 160 180 192 174C224 168 256 157 288 150.2C320 143.3 352 140.7 384 139.7C416 138.7 448 139.3 480 143.5C512 147.7 544 155.3 576 156.3C608 157.3 640 151.7 672 157.8C704 164 736 182 768 184.3C800 186.7 832 173.3 864 173.7C896 174 928 188 944 195L960 202L960 301L944 301C928 301 896 301 864 301C832 301 800 301 768 301C736 301 704 301 672 301C640 301 608 301 576 301C544 301 512 301 480 301C448 301 416 301 384 301C352 301 320 301 288 301C256 301 224 301 192 301C160 301 128 301 96 301C64 301 32 301 16 301L0 301Z" fill="#ffad35"></path><path d="M0 191L16 189.3C32 187.7 64 184.3 96 181.5C128 178.7 160 176.3 192 178C224 179.7 256 185.3 288 189C320 192.7 352 194.3 384 200.7C416 207 448 218 480 220C512 222 544 215 576 210.5C608 206 640 204 672 200.7C704 197.3 736 192.7 768 196.8C800 201 832 214 864 212.8C896 211.7 928 196.3 944 188.7L960 181L960 301L944 301C928 301 896 301 864 301C832 301 800 301 768 301C736 301 704 301 672 301C640 301 608 301 576 301C544 301 512 301 480 301C448 301 416 301 384 301C352 301 320 301 288 301C256 301 224 301 192 301C160 301 128 301 96 301C64 301 32 301 16 301L0 301Z" fill="#ff9e30"></path><path d="M0 246L16 244.8C32 243.7 64 241.3 96 238.3C128 235.3 160 231.7 192 228.7C224 225.7 256 223.3 288 226.5C320 229.7 352 238.3 384 242.3C416 246.3 448 245.7 480 245C512 244.3 544 243.7 576 241.3C608 239 640 235 672 233C704 231 736 231 768 229.3C800 227.7 832 224.3 864 227.2C896 230 928 239 944 243.5L960 248L960 301L944 301C928 301 896 301 864 301C832 301 800 301 768 301C736 301 704 301 672 301C640 301 608 301 576 301C544 301 512 301 480 301C448 301 416 301 384 301C352 301 320 301 288 301C256 301 224 301 192 301C160 301 128 301 96 301C64 301 32 301 16 301L0 301Z" fill="#ff8f2d"></path><path d="M0 262L16 260C32 258 64 254 96 254C128 254 160 258 192 258.2C224 258.3 256 254.7 288 251.7C320 248.7 352 246.3 384 245.5C416 244.7 448 245.3 480 247.2C512 249 544 252 576 253.8C608 255.7 640 256.3 672 257.5C704 258.7 736 260.3 768 257.5C800 254.7 832 247.3 864 248C896 248.7 928 257.3 944 261.7L960 266L960 301L944 301C928 301 896 301 864 301C832 301 800 301 768 301C736 301 704 301 672 301C640 301 608 301 576 301C544 301 512 301 480 301C448 301 416 301 384 301C352 301 320 301 288 301C256 301 224 301 192 301C160 301 128 301 96 301C64 301 32 301 16 301L0 301Z" fill="#fe7f2d"></path></svg>