<svg id="visual" viewBox="0 0 900 450" width="900" height="450" xmlns="http://www.w3.org/2000/svg" xmlns:xlink="http://www.w3.org/1999/xlink" version="1.1"><rect width="900" height="450" fill="#001829"></rect><g><g transform="translate(663 351)"><path d="M0 -124.8L108.1 -62.4L108.1 62.4L0 124.8L-108.1 62.4L-108.1 -62.4Z" fill="#297EA6"></path></g><g transform="translate(360 424)"><path d="M0 -76L65.8 -38L65.8 38L0 76L-65.8 38L-65.8 -38Z" fill="#297EA6"></path></g><g transform="translate(175 143)"><path d="M0 -26L22.5 -13L22.5 13L0 26L-22.5 13L-22.5 -13Z" fill="#297EA6"></path></g><g transform="translate(751 105)"><path d="M0 -97L84 -48.5L84 48.5L0 97L-84 48.5L-84 -48.5Z" fill="#297EA6"></path></g><g transform="translate(490 47)"><path d="M0 -104L90.1 -52L90.1 52L0 104L-90.1 52L-90.1 -52Z" fill="#297EA6"></path></g><g transform="translate(30 396)"><path d="M0 -39L33.8 -19.5L33.8 19.5L0 39L-33.8 19.5L-33.8 -19.5Z" fill="#297EA6"></path></g></g></svg>